# xmcd
#
# Track frame offsets:
#	150
#	16872
#	31452
#	48110
#
# Disc length: 845 seconds
#
# Revision: 0
# Processed by: cddbd v1.5.2PL0 Copyright (c) Steve Scherf et al.
# Submitted via: audiograbber 1.83.01
#
DISCID=23034b04
DTITLE=Glashaus - Maxi CD - Und ab geht die Reise (LC 0562)
DYEAR=1900
DGENRE=Deutsch
TTITLE0=Und ab geht die Reise
TTITLE1=Melanie
TTITLE2=Und ab geht die Reise (Karaoke Version)
TTITLE3=Melanie (Karaoke Version)
EXTD=
EXTT0=
EXTT1=
EXTT2=
EXTT3=
PLAYORDER=
